<svg xmlns="http://www.w3.org/2000/svg" aria-hidden="true" style="position:absolute;width:0;height:0;overflow:hidden">
<defs>
<symbol id="icon-github" viewBox="0 0 32 32">
<path d="M16 0C7.165 0 0 7.164 0 16c0 7.069 4.584 13.067 10.943 15.183.799.148 1.057-.348 1.057-.769v-2.979c-4.451.968-5.377-1.888-5.377-1.888-.728-1.849-1.777-2.341-1.777-2.341-1.452-.993.111-.972.111-.972 1.607.112 2.452 1.649 2.452 1.649 1.427 2.445 3.743 1.739 4.656 1.329.143-1.033.557-1.74 1.016-2.139-3.553-.407-7.289-1.779-7.289-7.908 0-1.748.625-3.175 1.648-4.295-.165-.404-.713-2.032.156-4.235 0 0 1.344-.429 4.401 1.64a15.345 15.345 0 0 1 4.004-.539c1.36.007 2.729.184 4.008.539 3.055-2.069 4.396-1.64 4.396-1.64.871 2.204.323 3.832.157 4.235 1.027 1.12 1.647 2.548 1.647 4.295 0 6.145-3.743 7.499-7.305 7.895.573.496 1.097 1.469 1.097 2.963v4.391c0 .425.256.925 1.068.768 6.353-2.119 10.932-8.115 10.932-15.181 0-8.836-7.164-16-16-16z"/>
</symbol>
<symbol id="icon-hamburger-menu" viewBox="0 0 32 32">
<path d="M0 4.8V8h32V4.8zm0 9.6v3.2h32v-3.2zM0 24v3.2h32V24z" fill="#fff"/>
</symbol>
<symbol id="icon-linkedin" viewBox="0 0 32 32">
<path fill="#0288d1" d="M28 24.667A3.333 3.333 0 0 1 24.667 28H7.334a3.333 3.333 0 0 1-3.333-3.333V7.334a3.333 3.333 0 0 1 3.333-3.333h17.333A3.333 3.333 0 0 1 28 7.334v17.333z" style="fill:var(--color1, #0288d1)"/>
<path fill="#fff" d="M8 12.667h3.333V24H8zm1.657-1.334h-.019C8.643 11.333 8 10.592 8 9.666 8 8.72 8.663 8 9.676 8c1.014 0 1.639.72 1.657 1.666 0 .925-.643 1.667-1.677 1.667zM24 24h-3.333v-6.066c0-1.465-.817-2.465-2.128-2.465-1.001 0-1.542.675-1.805 1.327-.096.233-.067.879-.067 1.205v6h-3.333V12.668h3.333v1.744c.481-.744 1.233-1.744 3.159-1.744 2.385 0 4.174 1.5 4.174 4.849l.001 6.484z" style="fill:var(--color2, #fff)"/>
</symbol>
<symbol id="icon-telegram" viewBox="0 0 32 32">
<path fill="#29b6f6" d="M16 2.667C8.636 2.667 2.667 8.637 2.667 16S8.637 29.333 16 29.333c7.364 0 13.333-5.97 13.333-13.333S23.363 2.667 16 2.667z" style="fill:var(--color3, #29b6f6)"/>
<path fill="#fff" d="m22.633 10-2.497 12.751s-.107.583-.83.583c-.384 0-.582-.183-.582-.183l-5.409-4.489-2.647-1.334-3.397-.903s-.605-.175-.605-.675c0-.417.622-.615.622-.615L21.499 9.49c-.001-.001.434-.157.751-.156.195 0 .417.083.417.333 0 .167-.033.333-.033.333z" style="fill:var(--color2, #fff)"/>
<path fill="#b0bec5" d="m15.333 20.337-2.284 2.249s-.099.077-.232.08a.33.33 0 0 1-.146-.029l.643-3.977 2.019 1.676z" style="fill:var(--color4, #b0bec5)"/>
<path fill="#cfd8dc" d="M19.931 12.131a.333.333 0 0 0-.467-.062l-8.797 5.265s1.404 3.928 1.618 4.608.387.697.387.697l.643-3.977 6.555-6.064a.333.333 0 0 0 .063-.467z" style="fill:var(--color5, #cfd8dc)"/>
</symbol>
</defs>
</svg>