<svg xmlns="http://www.w3.org/2000/svg" aria-hidden="true" style="position:absolute;width:0;height:0;overflow:hidden">
<defs>
<symbol id="icon-hamburger-menu" viewBox="0 0 32 32">
<path d="M0 4.8V8h32V4.8zm0 9.6v3.2h32v-3.2zM0 24v3.2h32V24z" fill="#fff"/>
</symbol>
<symbol id="icon-linkedin" viewBox="0 0 32 32">
<path d="M31.992 32H32V20.262c0-5.741-1.237-10.163-7.947-10.163-3.227 0-5.392 1.77-6.277 3.45h-.093v-2.914h-6.365v21.363h6.627V21.42c0-2.786.528-5.48 3.978-5.48 3.398 0 3.448 3.179 3.448 5.658V32h6.621zM.528 10.635h6.635V32H.528V10.635zM3.843 0A3.843 3.843 0 0 0 0 3.843c0 2.12 1.722 3.878 3.843 3.878 2.12 0 3.842-1.757 3.842-3.878S5.965.002 3.844 0z"/>
</symbol>
<symbol id="icon-telegram" viewBox="0 0 32 32">
<path d="M28.391 3.885c-3.937 1.631-20.82 8.624-25.484 10.53-3.128 1.221-1.297 2.365-1.297 2.365s2.67 0.916 4.96 1.602c2.289 0.687 3.51-0.076 3.51-0.076l10.758-7.249c3.815-2.594 2.9-0.458 1.984 0.458-1.984 1.984-5.265 5.112-8.012 7.63-1.221 1.068-0.611 1.984-0.076 2.442 1.984 1.679 7.401 5.112 7.706 5.341 1.612 1.141 4.782 2.784 5.265-0.687 0 0 1.908-11.979 1.908-11.979 0.611-4.044 1.221-7.783 1.297-8.851 0.229-2.595-2.518-1.526-2.518-1.526z"></path>
</symbol>
<symbol id="icon-github" viewBox="0 0 32 32">
<path d="M16.273 0.667c-7.526-0.008-13.945 5.448-15.15 12.877s3.16 14.634 10.303 17.005c0.772 0.141 1.045-0.339 1.045-0.744s0-1.327 0-2.607c-4.282 0.932-5.186-2.061-5.186-2.061-0.284-0.928-0.888-1.725-1.704-2.249-1.384-0.941 0.113-0.941 0.113-0.941 0.983 0.139 1.847 0.722 2.344 1.581 0.421 0.763 1.128 1.326 1.965 1.567s1.735 0.137 2.496-0.287c0.059-0.774 0.393-1.502 0.941-2.052-3.407-0.386-6.984-1.704-6.984-7.529-0.023-1.522 0.539-2.995 1.572-4.113-0.46-1.323-0.406-2.771 0.151-4.056 0 0 1.289-0.414 4.216 1.572 2.514-0.69 5.166-0.69 7.68 0 2.927-1.986 4.207-1.572 4.207-1.572 0.564 1.272 0.631 2.709 0.188 4.028 1.032 1.118 1.595 2.591 1.572 4.113 0 5.892-3.586 7.181-7.002 7.529 0.741 0.745 1.122 1.775 1.045 2.823 0 2.052 0 3.708 0 4.207s0.273 0.885 1.054 0.734c7.058-2.433 11.337-9.595 10.135-16.963s-7.536-12.799-15.001-12.863z"></path>
</symbol>
<symbol id="icon-cv" viewBox="0 0 32 32">
<path d="M0.6 0.6c-0.85 0.85-0.85 29.95 0 30.8s24.45 0.85 25.3 0c0.7-0.7 0.8-6.4 0.1-6.4-0.55 0-0.9 1.35-1.1 4l-0.15 1.75h-23v-29.5h23l0.25 3.7c0.15 2.35 0.5 3.8 0.9 3.95 0.85 0.25 0.85-7.45 0-8.3s-24.45-0.85-25.3 0z"></path>
<path d="M10.2 4.45c-4.050 2.45-3.1 8.5 1.55 10.050 2.85 0.95 6.45-1.25 7.050-4.25 0.9-4.85-4.35-8.4-8.6-5.8zM16.4 6.1c1.050 1.050 1.6 4.25 0.8 5.050-0.7 0.7-2-0.8-1.8-2.15 0.25-1.9-1.6-3.3-3.15-2.3-0.6 0.4-1 1.2-1 2.1 0 1.4-1.1 2.85-1.85 2.4-0.25-0.15-0.4-1.1-0.4-2.15 0-3.95 4.4-5.7 7.4-2.95zM13.9 8.6c-0.1 0.65-0.35 1.15-0.65 1.15-0.25 0-0.55-0.5-0.65-1.15-0.1-0.75 0.1-1.1 0.65-1.1s0.75 0.35 0.65 1.1zM15.4 12.15c0.9 0.7-0.15 1.35-2.15 1.35s-3.050-0.65-2.15-1.35c1.4-1.15 2.85-1.15 4.3 0zM27.5 8.75c-0.35 0.45-2.4 3.8-4.5 7.45-2.95 5.1-3.9 7.25-4.15 9.2-0.15 1.45-0.1 2.7 0.2 2.85 0.25 0.2 1.35-0.3 2.45-1.1 1.55-1.050 3.050-3.2 6.35-8.85 3.75-6.45 4.25-7.6 3.85-8.75-0.55-1.6-3.15-2.1-4.2-0.8zM30.4 10.2c0.3 1.45-0.65 2-1.9 1.15-1-0.7-1-0.8-0.2-1.55 0.95-1 1.9-0.8 2.1 0.4zM28.050 12.5c0.5 0.3 0.95 0.7 0.95 0.95 0 0.3-4.95 9.25-5.8 10.45-0.050 0.1-0.65-0.1-1.35-0.5l-1.2-0.65 3.050-5.35c1.65-2.95 3.1-5.35 3.2-5.4 0.1 0 0.6 0.25 1.15 0.5zM21.7 24.9c0.1 0.2-0.2 0.65-0.75 1-0.8 0.55-0.95 0.45-0.95-0.4 0-0.95 1.2-1.4 1.7-0.6zM4.5 17.5c0 0.25 0.25 0.5 0.5 0.5 0.3 0 0.5-0.25 0.5-0.5 0-0.3-0.2-0.5-0.5-0.5-0.25 0-0.5 0.2-0.5 0.5zM7 17.5c0 0.3 2 0.5 5 0.5s5-0.2 5-0.5-2-0.5-5-0.5-5 0.2-5 0.5zM4.5 21c0 0.25 0.25 0.5 0.5 0.5 0.3 0 0.5-0.25 0.5-0.5 0-0.3-0.2-0.5-0.5-0.5-0.25 0-0.5 0.2-0.5 0.5zM7 21c0 0.3 2 0.5 5 0.5s5-0.2 5-0.5-2-0.5-5-0.5-5 0.2-5 0.5zM4.5 24.5c0 0.25 0.25 0.5 0.5 0.5 0.3 0 0.5-0.25 0.5-0.5 0-0.3-0.2-0.5-0.5-0.5-0.25 0-0.5 0.2-0.5 0.5zM7 24.5c0 0.3 2 0.5 5 0.5s5-0.2 5-0.5-2-0.5-5-0.5-5 0.2-5 0.5zM12.5 28c0 0.25 1 0.5 2.25 0.5s2.25-0.25 2.25-0.5c0-0.3-1-0.5-2.25-0.5s-2.25 0.2-2.25 0.5z"></path>
</symbol>
</defs>
</svg>